<svg width="83" height="55" viewBox="0 0 83 55" fill="none" xmlns="http://www.w3.org/2000/svg">
<path d="M18.7416 49.8799C18.4293 49.8799 18.147 49.8109 17.8948 49.6727C17.6455 49.5346 17.4489 49.3439 17.3047 49.1007C17.1636 48.8545 17.093 48.5797 17.093 48.2764C17.093 47.9732 17.1636 47.6999 17.3047 47.4567C17.4489 47.2105 17.647 47.0183 17.8993 46.8801C18.1515 46.742 18.4338 46.673 18.7461 46.673C18.9803 46.673 19.1965 46.712 19.3947 46.7901C19.5929 46.8681 19.761 46.9822 19.8991 47.1324L19.6874 47.3441C19.4412 47.0948 19.1304 46.9702 18.7551 46.9702C18.5058 46.9702 18.2791 47.0273 18.0749 47.1414C17.8708 47.2555 17.7101 47.4116 17.593 47.6098C17.4789 47.808 17.4218 48.0302 17.4218 48.2764C17.4218 48.5227 17.4789 48.7449 17.593 48.9431C17.7101 49.1412 17.8708 49.2974 18.0749 49.4115C18.2791 49.5256 18.5058 49.5827 18.7551 49.5827C19.1334 49.5827 19.4442 49.4565 19.6874 49.2043L19.8991 49.416C19.761 49.5661 19.5914 49.6817 19.3902 49.7628C19.192 49.8409 18.9758 49.8799 18.7416 49.8799ZM21.3712 48.7989H20.8307V49.8529H20.5109V47.4837H20.8307V48.5242H21.3757L22.209 47.4837H22.5558L21.6234 48.6323L22.6234 49.8529H22.245L21.3712 48.7989ZM25.0051 47.4837L23.8205 50.1367C23.7244 50.3589 23.6133 50.5165 23.4872 50.6096C23.3611 50.7027 23.2094 50.7492 23.0323 50.7492C22.9181 50.7492 22.8115 50.7312 22.7125 50.6952C22.6134 50.6592 22.5278 50.6051 22.4557 50.533L22.6044 50.2943C22.7245 50.4144 22.8686 50.4745 23.0368 50.4745C23.1449 50.4745 23.2364 50.4445 23.3115 50.3844C23.3896 50.3243 23.4617 50.2222 23.5277 50.0781L23.6313 49.8484L22.5728 47.4837H22.9061L23.798 49.4971L24.6898 47.4837H25.0051ZM27.6293 47.4837V49.8529H27.3095V47.7675H25.8231V49.8529H25.5033V47.4837H27.6293ZM29.3987 48.7989H28.8582V49.8529H28.5384V47.4837H28.8582V48.5242H29.4032L30.2365 47.4837H30.5833L29.6509 48.6323L30.6508 49.8529H30.2725L29.3987 48.7989ZM31.9268 47.4657C32.2361 47.4657 32.4733 47.5438 32.6385 47.6999C32.8036 47.853 32.8862 48.0813 32.8862 48.3845V49.8529H32.5799V49.4836C32.5079 49.6067 32.4013 49.7028 32.2601 49.7718C32.122 49.8409 31.9569 49.8754 31.7647 49.8754C31.5004 49.8754 31.2902 49.8124 31.1341 49.6863C30.9779 49.5601 30.8999 49.3935 30.8999 49.1863C30.8999 48.9851 30.9719 48.8229 31.1161 48.6998C31.2632 48.5767 31.4959 48.5152 31.8142 48.5152H32.5664V48.371C32.5664 48.1668 32.5094 48.0122 32.3953 47.9071C32.2812 47.799 32.1145 47.7449 31.8953 47.7449C31.7452 47.7449 31.601 47.7705 31.4629 47.8215C31.3248 47.8696 31.2062 47.9371 31.1071 48.0242L30.9629 47.7855C31.083 47.6834 31.2272 47.6053 31.3953 47.5513C31.5635 47.4942 31.7407 47.4657 31.9268 47.4657ZM31.8142 49.6232C31.9944 49.6232 32.149 49.5827 32.2781 49.5016C32.4073 49.4175 32.5034 49.2974 32.5664 49.1412V48.7539H31.8232C31.4179 48.7539 31.2152 48.895 31.2152 49.1773C31.2152 49.3154 31.2677 49.425 31.3728 49.5061C31.4779 49.5842 31.625 49.6232 31.8142 49.6232ZM36.7045 47.4837V49.8529H36.3847V48.8665C36.1115 48.9866 35.8427 49.0467 35.5785 49.0467C35.2932 49.0467 35.071 48.9821 34.9119 48.853C34.7527 48.7209 34.6731 48.5242 34.6731 48.2629V47.4837H34.9929V48.2449C34.9929 48.4221 35.05 48.5572 35.1641 48.6503C35.2782 48.7404 35.4359 48.7854 35.637 48.7854C35.8592 48.7854 36.1085 48.7269 36.3847 48.6098V47.4837H36.7045ZM38.428 47.4657C38.7373 47.4657 38.9745 47.5438 39.1396 47.6999C39.3048 47.853 39.3874 48.0813 39.3874 48.3845V49.8529H39.0811V49.4836C39.009 49.6067 38.9024 49.7028 38.7613 49.7718C38.6232 49.8409 38.458 49.8754 38.2658 49.8754C38.0016 49.8754 37.7914 49.8124 37.6352 49.6863C37.4791 49.5601 37.401 49.3935 37.401 49.1863C37.401 48.9851 37.4731 48.8229 37.6172 48.6998C37.7644 48.5767 37.9971 48.5152 38.3154 48.5152H39.0676V48.371C39.0676 48.1668 39.0105 48.0122 38.8964 47.9071C38.7823 47.799 38.6157 47.7449 38.3965 47.7449C38.2463 47.7449 38.1022 47.7705 37.964 47.8215C37.8259 47.8696 37.7073 47.9371 37.6082 48.0242L37.4641 47.7855C37.5842 47.6834 37.7283 47.6053 37.8965 47.5513C38.0646 47.4942 38.2418 47.4657 38.428 47.4657ZM38.3154 49.6232C38.4955 49.6232 38.6502 49.5827 38.7793 49.5016C38.9084 49.4175 39.0045 49.2974 39.0676 49.1412V48.7539H38.3244C37.919 48.7539 37.7163 48.895 37.7163 49.1773C37.7163 49.3154 37.7689 49.425 37.874 49.5061C37.9791 49.5842 38.1262 49.6232 38.3154 49.6232ZM41.2296 49.8754C40.9954 49.8754 40.7852 49.8244 40.599 49.7223C40.4159 49.6202 40.2717 49.4776 40.1666 49.2944C40.0615 49.1082 40.009 48.8995 40.009 48.6683C40.009 48.4371 40.0615 48.2299 40.1666 48.0467C40.2717 47.8636 40.4159 47.7209 40.599 47.6188C40.7852 47.5167 40.9954 47.4657 41.2296 47.4657C41.4338 47.4657 41.6155 47.5062 41.7746 47.5873C41.9368 47.6654 42.0644 47.781 42.1575 47.9341L41.9188 48.0963C41.8407 47.9792 41.7416 47.8921 41.6215 47.835C41.5014 47.775 41.3707 47.7449 41.2296 47.7449C41.0585 47.7449 40.9038 47.784 40.7657 47.8621C40.6306 47.9371 40.524 48.0452 40.4459 48.1864C40.3708 48.3275 40.3333 48.4881 40.3333 48.6683C40.3333 48.8515 40.3708 49.0136 40.4459 49.1548C40.524 49.2929 40.6306 49.401 40.7657 49.4791C40.9038 49.5541 41.0585 49.5917 41.2296 49.5917C41.3707 49.5917 41.5014 49.5631 41.6215 49.5061C41.7416 49.449 41.8407 49.3619 41.9188 49.2448L42.1575 49.407C42.0644 49.5601 41.9368 49.6772 41.7746 49.7583C41.6125 49.8364 41.4308 49.8754 41.2296 49.8754ZM43.7145 49.8754C43.4863 49.8754 43.2806 49.8244 43.0974 49.7223C42.9143 49.6172 42.7701 49.4731 42.665 49.2899C42.5599 49.1067 42.5074 48.8995 42.5074 48.6683C42.5074 48.4371 42.5599 48.2299 42.665 48.0467C42.7701 47.8636 42.9143 47.7209 43.0974 47.6188C43.2806 47.5167 43.4863 47.4657 43.7145 47.4657C43.9427 47.4657 44.1484 47.5167 44.3316 47.6188C44.5148 47.7209 44.6574 47.8636 44.7595 48.0467C44.8646 48.2299 44.9171 48.4371 44.9171 48.6683C44.9171 48.8995 44.8646 49.1067 44.7595 49.2899C44.6574 49.4731 44.5148 49.6172 44.3316 49.7223C44.1484 49.8244 43.9427 49.8754 43.7145 49.8754ZM43.7145 49.5917C43.8827 49.5917 44.0328 49.5541 44.1649 49.4791C44.3001 49.401 44.4052 49.2914 44.4802 49.1503C44.5553 49.0091 44.5928 48.8485 44.5928 48.6683C44.5928 48.4881 44.5553 48.3275 44.4802 48.1864C44.4052 48.0452 44.3001 47.9371 44.1649 47.8621C44.0328 47.784 43.8827 47.7449 43.7145 47.7449C43.5464 47.7449 43.3947 47.784 43.2596 47.8621C43.1275 47.9371 43.0224 48.0452 42.9443 48.1864C42.8692 48.3275 42.8317 48.4881 42.8317 48.6683C42.8317 48.8485 42.8692 49.0091 42.9443 49.1503C43.0224 49.2914 43.1275 49.401 43.2596 49.4791C43.3947 49.5541 43.5464 49.5917 43.7145 49.5917ZM47.1095 48.6278C47.4308 48.7028 47.5915 48.8965 47.5915 49.2088C47.5915 49.416 47.5149 49.5751 47.3617 49.6863C47.2086 49.7974 46.9804 49.8529 46.6771 49.8529H45.6006V47.4837H46.6456C46.9158 47.4837 47.1275 47.5363 47.2807 47.6414C47.4338 47.7464 47.5104 47.8966 47.5104 48.0918C47.5104 48.2209 47.4744 48.332 47.4023 48.4251C47.3332 48.5152 47.2356 48.5827 47.1095 48.6278ZM45.9114 48.5377H46.6231C46.8062 48.5377 46.9459 48.5032 47.042 48.4341C47.141 48.365 47.1906 48.2644 47.1906 48.1323C47.1906 48.0002 47.141 47.9011 47.042 47.835C46.9459 47.769 46.8062 47.7359 46.6231 47.7359H45.9114V48.5377ZM46.6636 49.6007C46.8678 49.6007 47.0209 49.5676 47.123 49.5016C47.2251 49.4355 47.2762 49.3319 47.2762 49.1908C47.2762 49.0497 47.2296 48.9461 47.1365 48.88C47.0435 48.8109 46.8963 48.7764 46.6951 48.7764H45.9114V49.6007H46.6636ZM49.5198 47.4837H49.8396V49.3665L51.4205 47.4837H51.7043V49.8529H51.3845V47.9702L49.808 49.8529H49.5198V47.4837ZM55.813 47.4837L54.6284 50.1367C54.5323 50.3589 54.4212 50.5165 54.2951 50.6096C54.169 50.7027 54.0173 50.7492 53.8402 50.7492C53.7261 50.7492 53.6195 50.7312 53.5204 50.6952C53.4213 50.6592 53.3357 50.6051 53.2636 50.533L53.4123 50.2943C53.5324 50.4144 53.6765 50.4745 53.8447 50.4745C53.9528 50.4745 54.0444 50.4445 54.1194 50.3844C54.1975 50.3243 54.2696 50.2222 54.3356 50.0781L54.4392 49.8484L53.3807 47.4837H53.7141L54.6059 49.4971L55.4977 47.4837H55.813ZM57.1715 48.7989H56.631V49.8529H56.3112V47.4837H56.631V48.5242H57.176L58.0093 47.4837H58.3561L57.4238 48.6323L58.4237 49.8529H58.0454L57.1715 48.7989ZM60.1491 47.4657C60.3713 47.4657 60.5725 47.5167 60.7526 47.6188C60.9328 47.7179 61.0739 47.8591 61.176 48.0422C61.2781 48.2254 61.3292 48.4341 61.3292 48.6683C61.3292 48.9055 61.2781 49.1157 61.176 49.2989C61.0739 49.4821 60.9328 49.6247 60.7526 49.7268C60.5755 49.8259 60.3743 49.8754 60.1491 49.8754C59.9569 49.8754 59.7827 49.8364 59.6266 49.7583C59.4734 49.6772 59.3473 49.5601 59.2482 49.407V50.7267H58.9284V47.4837H59.2347V47.9521C59.3308 47.796 59.4569 47.6759 59.6131 47.5918C59.7722 47.5077 59.9509 47.4657 60.1491 47.4657ZM60.1265 49.5917C60.2917 49.5917 60.4418 49.5541 60.577 49.4791C60.7121 49.401 60.8172 49.2914 60.8923 49.1503C60.9703 49.0091 61.0094 48.8485 61.0094 48.6683C61.0094 48.4881 60.9703 48.329 60.8923 48.1909C60.8172 48.0497 60.7121 47.9401 60.577 47.8621C60.4418 47.784 60.2917 47.7449 60.1265 47.7449C59.9584 47.7449 59.8067 47.784 59.6716 47.8621C59.5395 47.9401 59.4344 48.0497 59.3563 48.1909C59.2813 48.329 59.2437 48.4881 59.2437 48.6683C59.2437 48.8485 59.2813 49.0091 59.3563 49.1503C59.4344 49.2914 59.5395 49.401 59.6716 49.4791C59.8067 49.5541 59.9584 49.5917 60.1265 49.5917ZM62.8183 47.4657C63.1276 47.4657 63.3648 47.5438 63.53 47.6999C63.6951 47.853 63.7777 48.0813 63.7777 48.3845V49.8529H63.4714V49.4836C63.3994 49.6067 63.2928 49.7028 63.1516 49.7718C63.0135 49.8409 62.8483 49.8754 62.6562 49.8754C62.3919 49.8754 62.1817 49.8124 62.0256 49.6863C61.8694 49.5601 61.7914 49.3935 61.7914 49.1863C61.7914 48.9851 61.8634 48.8229 62.0076 48.6998C62.1547 48.5767 62.3874 48.5152 62.7057 48.5152H63.4579V48.371C63.4579 48.1668 63.4009 48.0122 63.2868 47.9071C63.1726 47.799 63.006 47.7449 62.7868 47.7449C62.6366 47.7449 62.4925 47.7705 62.3544 47.8215C62.2163 47.8696 62.0976 47.9371 61.9986 48.0242L61.8544 47.7855C61.9745 47.6834 62.1187 47.6053 62.2868 47.5513C62.455 47.4942 62.6321 47.4657 62.8183 47.4657ZM62.7057 49.6232C62.8859 49.6232 63.0405 49.5827 63.1696 49.5016C63.2988 49.4175 63.3949 49.2974 63.4579 49.1412V48.7539H62.7147C62.3093 48.7539 62.1067 48.895 62.1067 49.1773C62.1067 49.3154 62.1592 49.425 62.2643 49.5061C62.3694 49.5842 62.5165 49.6232 62.7057 49.6232ZM67.8991 47.4837V49.8529H64.629V47.4837H64.9488V49.5736H66.1109V47.4837H66.4307V49.5736H67.5793V47.4837H67.8991ZM70.884 48.7674H68.9022C68.9202 49.0136 69.0148 49.2133 69.186 49.3665C69.3571 49.5166 69.5733 49.5917 69.8346 49.5917C69.9817 49.5917 70.1168 49.5661 70.2399 49.5151C70.3631 49.461 70.4697 49.383 70.5597 49.2809L70.7399 49.4881C70.6348 49.6142 70.5027 49.7103 70.3435 49.7763C70.1874 49.8424 70.0147 49.8754 69.8256 49.8754C69.5823 49.8754 69.3661 49.8244 69.177 49.7223C68.9908 49.6172 68.8452 49.4731 68.7401 49.2899C68.635 49.1067 68.5824 48.8995 68.5824 48.6683C68.5824 48.4371 68.632 48.2299 68.731 48.0467C68.8331 47.8636 68.9713 47.7209 69.1454 47.6188C69.3226 47.5167 69.5208 47.4657 69.74 47.4657C69.9592 47.4657 70.1559 47.5167 70.33 47.6188C70.5042 47.7209 70.6408 47.8636 70.7399 48.0467C70.839 48.2269 70.8885 48.4341 70.8885 48.6683L70.884 48.7674ZM69.74 47.7404C69.5118 47.7404 69.3196 47.814 69.1634 47.9611C69.0103 48.1053 68.9232 48.2945 68.9022 48.5287H70.5823C70.5612 48.2945 70.4727 48.1053 70.3165 47.9611C70.1634 47.814 69.9712 47.7404 69.74 47.7404ZM71.5964 47.4837H71.9162V48.5332H73.4071V47.4837H73.7269V49.8529H73.4071V48.8079H71.9162V49.8529H71.5964V47.4837ZM74.6359 47.4837H74.9557V49.3665L76.5367 47.4837H76.8204V49.8529H76.5006V47.9702L74.9242 49.8529H74.6359V47.4837ZM77.7369 47.4837H78.0567V49.3665L79.6377 47.4837H79.9214V49.8529H79.6016V47.9702L78.0252 49.8529H77.7369V47.4837ZM78.8134 47.1414C78.6092 47.1414 78.4471 47.0903 78.327 46.9882C78.2069 46.8861 78.1453 46.742 78.1423 46.5558H78.372C78.375 46.673 78.417 46.7675 78.4981 46.8396C78.5792 46.9087 78.6843 46.9432 78.8134 46.9432C78.9425 46.9432 79.0476 46.9087 79.1287 46.8396C79.2128 46.7675 79.2563 46.673 79.2593 46.5558H79.489C79.486 46.742 79.423 46.8861 79.2999 46.9882C79.1798 47.0903 79.0176 47.1414 78.8134 47.1414Z" fill="black"/>
<path d="M36.262 35.219L33.8677 43.7621H32.1401L35.2825 33.8587H36.3572L36.262 35.219ZM38.1733 43.7621L35.7722 35.219L35.6566 33.8587H36.7517L39.9077 43.7621H38.1733ZM38.2141 40.0823V41.4699H33.6025V40.0823H38.2141ZM44.5923 40.7489L48.0408 33.8587H49.6392V43.7621H48.0204V36.9127L44.5923 43.7621H42.9802V33.8587H44.5923V40.7489ZM47.2994 31.3216H48.5237C48.5237 31.698 48.433 32.0313 48.2516 32.3215C48.0748 32.6117 47.8208 32.8384 47.4898 33.0016C47.1633 33.1649 46.7734 33.2465 46.3199 33.2465C45.6397 33.2465 45.1001 33.0674 44.7011 32.7092C44.3066 32.3509 44.1093 31.8884 44.1093 31.3216H45.3337C45.3337 31.571 45.4085 31.7909 45.5581 31.9814C45.7078 32.1718 45.9617 32.2671 46.3199 32.2671C46.6781 32.2671 46.9298 32.1718 47.0749 31.9814C47.2246 31.7909 47.2994 31.571 47.2994 31.3216ZM54.0449 33.8587H55.548L57.8267 41.225L60.0985 33.8587H61.4928L58.4456 43.7621H57.2009L54.0449 33.8587ZM53.4803 33.8587H54.8679L55.0923 40.1639V43.7621H53.4803V33.8587ZM60.7718 33.8587H62.1662V43.7621H60.5542V40.1639L60.7718 33.8587ZM71.4896 42.3813V43.7621H67.1908V42.3813H71.4896ZM67.6261 33.8587V43.7621H65.9733V33.8587H67.6261ZM70.9114 37.9806V39.3409H67.1908V37.9806H70.9114ZM71.4487 33.8587V35.2462H67.1908V33.8587H71.4487ZM78.0786 40.0891H75.9904V38.7084H78.0786C78.4232 38.7084 78.6998 38.6358 78.9084 38.4907C79.117 38.3456 79.2689 38.1461 79.3641 37.8921C79.4639 37.6382 79.5138 37.3503 79.5138 37.0283C79.5138 36.72 79.4639 36.4298 79.3641 36.1577C79.2689 35.8856 79.117 35.6657 78.9084 35.4979C78.6998 35.3301 78.4232 35.2462 78.0786 35.2462H76.453V43.7621H74.8069V33.8587H78.0786C78.7361 33.8587 79.2938 33.9947 79.7518 34.2668C80.2144 34.5389 80.568 34.9129 80.8129 35.3891C81.0578 35.8607 81.1802 36.4025 81.1802 37.0147C81.1802 37.6495 81.0578 38.1982 80.8129 38.6607C80.568 39.1187 80.2144 39.4724 79.7518 39.7218C79.2938 39.9667 78.7361 40.0891 78.0786 40.0891Z" fill="black"/>
<path d="M48.5749 27.9478C49.0308 27.9664 49.4171 27.6117 49.4188 27.1554C49.4316 23.664 48.6261 20.2139 47.0619 17.0838C45.3744 13.7071 42.8591 10.8129 39.7505 8.67133C36.642 6.52972 33.0415 5.21048 29.2852 4.83674C25.5289 4.46299 21.7391 5.04691 18.2695 6.534C14.7999 8.0211 11.7636 10.3629 9.44387 13.3409C7.12413 16.3189 5.5966 19.836 5.00382 23.564C4.41105 27.292 4.77234 31.1095 6.05399 34.6601C7.24202 37.9514 9.18498 40.914 11.7223 43.3124C12.0539 43.6258 12.5771 43.5907 12.8781 43.2478C13.179 42.9048 13.1437 42.384 12.813 42.0696C10.485 39.856 8.70146 37.1278 7.6082 34.0991C6.42132 30.811 6.08675 27.2759 6.63569 23.8235C7.18464 20.3711 8.59922 17.1141 10.7474 14.3563C12.8956 11.5985 15.7074 9.42988 18.9205 8.05275C22.1335 6.67562 25.6431 6.13487 29.1216 6.48099C32.6002 6.8271 35.9344 8.04878 38.8131 10.032C41.6918 12.0153 44.0211 14.6955 45.5838 17.8225C47.0232 20.7028 47.7689 23.8758 47.7665 27.0883C47.7662 27.5445 48.119 27.9293 48.5749 27.9478Z" fill="#D2C188"/>
<rect x="27.2793" y="27.8599" width="1.74126" height="15.6713" fill="black"/>
<rect x="17.2695" y="27.8661" width="10.0185" height="0.58042" transform="rotate(0.82862 17.2695 27.8661)" fill="black"/>
<rect x="27.345" y="27.8485" width="10.1736" height="1.56521" transform="rotate(-21.9027 27.345 27.8485)" fill="black"/>
</svg>
