<svg width="32" height="32" viewBox="0 0 32 32" fill="none" xmlns="http://www.w3.org/2000/svg">
<path d="M16 20.3429C16.828 20.3429 17.6374 20.0882 18.3259 19.611C19.0143 19.1338 19.5509 18.4555 19.8678 17.6619C20.1846 16.8684 20.2675 15.9952 20.106 15.1528C19.9445 14.3103 19.5457 13.5365 18.9603 12.9291C18.3748 12.3218 17.6288 11.9082 16.8167 11.7406C16.0046 11.573 15.1629 11.659 14.3979 11.9877C13.6329 12.3164 12.9791 12.8731 12.5191 13.5872C12.0591 14.3014 11.8136 15.1411 11.8136 16C11.8136 17.1518 12.2546 18.2564 13.0397 19.0709C13.8249 19.8853 14.8897 20.3429 16 20.3429ZM16 13.0286C16.5665 13.0286 17.1203 13.2028 17.5914 13.5293C18.0624 13.8559 18.4296 14.3199 18.6464 14.8629C18.8632 15.4058 18.9199 16.0033 18.8094 16.5797C18.6988 17.1561 18.426 17.6856 18.0254 18.1011C17.6248 18.5167 17.1145 18.7997 16.5588 18.9143C16.0032 19.029 15.4272 18.9701 14.9038 18.7452C14.3804 18.5203 13.9331 18.1395 13.6183 17.6508C13.3036 17.1622 13.1356 16.5877 13.1356 16C13.1356 15.2119 13.4374 14.4561 13.9746 13.8989C14.5117 13.3416 15.2403 13.0286 16 13.0286ZM28.339 8H3.66102C3.4857 8 3.31757 8.07224 3.19361 8.20084C3.06964 8.32944 3 8.50385 3 8.68571V23.3143C3 23.4961 3.06964 23.6706 3.19361 23.7992C3.31757 23.9278 3.4857 24 3.66102 24H28.339C28.5143 24 28.6824 23.9278 28.8064 23.7992C28.9304 23.6706 29 23.4961 29 23.3143V8.68571C29 8.50385 28.9304 8.32944 28.8064 8.20084C28.6824 8.07224 28.5143 8 28.339 8ZM4.32203 13.808C5.34841 13.5248 6.28446 12.9653 7.03546 12.1862C7.78646 11.4072 8.32577 10.4362 8.59881 9.37143H23.4012C23.6742 10.4362 24.2135 11.4072 24.9645 12.1862C25.7155 12.9653 26.6516 13.5248 27.678 13.808V18.192C26.6516 18.4752 25.7155 19.0347 24.9645 19.8138C24.2135 20.5928 23.6742 21.5638 23.4012 22.6286H8.59881C8.32577 21.5638 7.78646 20.5928 7.03546 19.8138C6.28446 19.0347 5.34841 18.4752 4.32203 18.192V13.808ZM27.678 12.376C27.0085 12.1334 26.4003 11.7372 25.8989 11.217C25.3974 10.6968 25.0155 10.066 24.7816 9.37143H27.678V12.376ZM7.21839 9.37143C6.9845 10.066 6.60261 10.6968 6.10114 11.217C5.59967 11.7372 4.99154 12.1334 4.32203 12.376V9.37143H7.21839ZM4.32203 19.624C4.99154 19.8666 5.59967 20.2628 6.10114 20.783C6.60261 21.3032 6.9845 21.934 7.21839 22.6286H4.32203V19.624ZM24.7816 22.6286C25.0155 21.934 25.3974 21.3032 25.8989 20.783C26.4003 20.2628 27.0085 19.8666 27.678 19.624V22.6286H24.7816Z" fill="black"/>
</svg>
