<svg width="28" height="29" viewBox="0 0 28 29" fill="none" xmlns="http://www.w3.org/2000/svg">
<path d="M25.7655 3.52973C25.66 3.43859 25.5316 3.37799 25.3941 3.35447C25.2567 3.33096 25.1155 3.34542 24.9857 3.39629L2.81972 12.0708C2.55011 12.1763 2.322 12.3664 2.16966 12.6126C2.01732 12.8588 1.94895 13.1478 1.97484 13.4361C2.00073 13.7245 2.11947 13.9967 2.31323 14.2118C2.507 14.4269 2.76532 14.5733 3.0494 14.6291L8.96878 15.7918V22.375C8.9689 22.6802 9.06022 22.9784 9.23103 23.2314C9.40183 23.4843 9.64432 23.6804 9.92737 23.7946C10.2104 23.9087 10.5211 23.9357 10.8196 23.872C11.1181 23.8083 11.3907 23.6568 11.6025 23.4371L14.5163 20.415L19.0641 24.4018C19.3417 24.6474 19.6996 24.7832 20.0703 24.7835C20.2322 24.7831 20.3931 24.7576 20.5472 24.708C20.7999 24.6281 21.0271 24.4833 21.2064 24.2881C21.3856 24.0929 21.5106 23.8542 21.5688 23.5957L26.0116 4.28114C26.0428 4.14535 26.0364 4.00362 25.993 3.87121C25.9497 3.7388 25.871 3.62073 25.7655 3.52973ZM3.28675 13.3374C3.28256 13.3261 3.28256 13.3137 3.28675 13.3024C3.29169 13.2986 3.29723 13.2956 3.30315 13.2936L20.7714 6.45551L9.473 14.5493L3.30315 13.3418L3.28675 13.3374ZM10.6575 22.5249C10.6274 22.5562 10.5886 22.5778 10.5461 22.5869C10.5037 22.5961 10.4594 22.5924 10.4191 22.5763C10.3787 22.5602 10.3441 22.5325 10.3195 22.4967C10.295 22.4608 10.2817 22.4185 10.2813 22.375V16.6996L13.5286 19.5433L10.6575 22.5249ZM20.2902 23.2993C20.2821 23.3362 20.2643 23.3704 20.2385 23.3981C20.2127 23.4258 20.1799 23.4461 20.1436 23.4568C20.1066 23.4698 20.0667 23.4726 20.0283 23.4649C19.9898 23.4572 19.9541 23.4393 19.9249 23.413L10.6794 15.3029L24.3907 5.47661L20.2902 23.2993Z" fill="black"/>
</svg>
