<svg width="28" height="29" viewBox="0 0 28 29" fill="none" xmlns="http://www.w3.org/2000/svg">
<path fill-rule="evenodd" clip-rule="evenodd" d="M21.7945 6.69753C20.7798 5.68095 19.5724 4.87487 18.2424 4.326C16.9124 3.77714 15.4862 3.49639 14.0463 3.50003C8.00886 3.50003 3.09395 8.3904 3.09151 14.4017C3.09151 16.3228 3.59545 18.1978 4.5533 19.8519L3 25.5L8.80687 23.9832C10.4131 24.8535 12.2126 25.3098 14.0415 25.3106H14.0463C20.0826 25.3106 24.9975 20.4202 25 14.4089C25.0041 12.9765 24.723 11.5575 24.1728 10.2339C23.6226 8.91032 22.8143 7.70836 21.7945 6.69753ZM14.0463 23.4707H14.0427C12.4119 23.4709 10.8112 23.0342 9.40842 22.2066L9.07653 22.0098L5.63072 22.9097L6.54952 19.5665L6.33355 19.224C5.42181 17.7794 4.93916 16.1076 4.94132 14.4017C4.94376 9.40563 9.02772 5.34106 14.05 5.34106C15.2461 5.33841 16.4308 5.57189 17.5357 6.02798C18.6405 6.48407 19.6434 7.15371 20.4865 7.99815C21.3341 8.83856 22.0059 9.83783 22.4631 10.9382C22.9203 12.0386 23.1538 13.2182 23.1502 14.4089C23.1477 19.405 19.0638 23.4707 14.0463 23.4707ZM19.0406 16.6835C18.766 16.5463 17.4214 15.8881 17.17 15.797C16.9199 15.7059 16.7381 15.661 16.555 15.933C16.372 16.205 15.8473 16.8183 15.6875 17.0005C15.5277 17.1826 15.3678 17.2045 15.0945 17.0685C14.8212 16.9324 13.939 16.6446 12.8933 15.7168C12.0794 14.9943 11.5303 14.1029 11.3705 13.8297C11.2106 13.5564 11.3534 13.4095 11.4913 13.2735C11.6145 13.152 11.7646 12.9553 11.9013 12.7962C12.0379 12.6371 12.0831 12.5242 12.1746 12.342C12.2661 12.1599 12.2209 12.0008 12.1514 11.8648C12.0831 11.7276 11.5352 10.3869 11.307 9.8416C11.0862 9.31334 10.8604 9.38377 10.6921 9.37649C10.5177 9.36939 10.3431 9.36615 10.1686 9.36677C10.0298 9.37029 9.89324 9.40231 9.76747 9.46083C9.6417 9.51934 9.52943 9.60308 9.4377 9.7068C9.18634 9.98004 8.47986 10.6382 8.47986 11.9789C8.47986 13.3196 9.46089 14.6154 9.59755 14.7975C9.73421 14.9797 11.5279 17.7303 14.2733 18.9107C14.9273 19.1912 15.4374 19.3588 15.8339 19.4851C16.4892 19.6928 17.0858 19.6624 17.558 19.5932C18.0839 19.5155 19.1772 18.935 19.4054 18.2986C19.6336 17.6623 19.6336 17.117 19.5652 17.0029C19.4969 16.8887 19.3127 16.8195 19.0406 16.6835Z" fill="black"/>
</svg>
